#!OML:ASF F:\VICON\USERDATA\INSTALL\rory3\rory3.ASF
:FULLY-SPECIFIED
:DEGREES
153
root 1.2532650531619078 17.877704636592423 49.92848196244874 -3.7312349117349557 -0.42178487808815357 0.49985771502420295
lfemur 7.523915688361392 -3.053468714895233 -22.887831060378527
ltibia 47.324304458546926
lfoot -18.16261136368245 -2.915016992475973
ltoes -16.118394934676807
rfemur -18.91945969022898 1.3950278893852084 23.565981561381953
rtibia 23.199946902680644
rfoot 1.2094749733703178 -8.685762744367306
rtoes 11.887041785712961
lowerback 10.347262614774396 -1.3906076224952317 -2.4182455310530844
upperback -0.12993477735121595 -2.270198162597687 1.7573910280983267
thorax -6.05172870517145 -1.0422205715185575 3.8595280561403102
lowerneck -16.76359861163219 -3.3031517565221664 -1.5755110204882463
upperneck 21.66464898129132 -4.466584202737529 1.1855906257294972
head 9.722171233863456 -2.0992432354312145 0.10190358096756799
lclavicle -2.7003079518197296e-15 -2.1517147062509006e-15
lhumerus -28.295245016487936 1.106299783120631 81.87214572951761
lradius 25.79655842435369
lwrist 10.256315373566231
lhand -30.191884678323117 18.550506085765836
lfingers 7.125020000000001
lthumb -3.4716814216914247 48.82222250588576
rclavicle -2.7003079517667063e-15 -2.1517147062141634e-15
rhumerus -32.15879820220254 -20.738290290709543 -77.76750806142294
rradius 25.796579448308496
rwrist 6.332607966106025
rhand -18.001883652675748 21.717124948122706
rfingers 7.125020000000001
rthumb 8.47923270095308 -7.735421861401923
154
root 1.2619088304576809 17.874927397845873 49.46297254017328 -3.6983037708547166 -0.511399152276683 0.3673290429124658
lfemur 7.935421903520625 -3.1074565112611583 -22.825575821998427
ltibia 47.04519181940877
lfoot -18.269631363992314 -2.64511744137793
ltoes -15.370167945862121
rfemur -18.91934307025661 1.5047993443917753 23.795872969528258
rtibia 23.123492252547152
rfoot 1.0734701943528755 -8.70365155764122
rtoes 11.607747908905992
lowerback 10.36325331268805 -1.4669031297531305 -2.3754794760219924
upperback -0.13099887688420347 -2.3390172148874826 1.794627923067424
thorax -6.047209187246818 -1.0808086550310585 3.982527581409557
lowerneck -16.77931148905408 -3.2994951242735095 -1.5891450283162842
upperneck 21.639221684616277 -4.4409132842854 1.1703001493908605
head 9.709261544712351 -2.0901859991779244 0.10225773886875947
lclavicle -2.7003079518279188e-15 -2.151714706256176e-15
lhumerus -28.319832956197914 1.3537601708148 81.95407311267361
lradius 25.294701987768928
lwrist 10.479902795988409
lhand -30.100162360120272 18.08663173373311
lfingers 7.125020000000001
lthumb -3.4302086836225403 48.278371688623366
rclavicle -2.700307951775822e-15 -2.1517147062200925e-15
rhumerus -31.850551420228463 -20.806797663576447 -77.91976822350034
rradius 25.777208320837115
rwrist 6.794035459516672
rhand -17.98614423388082 21.785346477280072
rfingers 7.125020000000001
rthumb 8.545293477956278 -7.703582927177118
155
root 1.251819382312107 17.862186626643375 48.91989971347374 -3.8003805984861634 -0.7227041344452841 0.3749274490465
lfemur 7.802734265053861 -3.062875929909257 -22.78384155723428
ltibia 47.18390131455574
lfoot -18.462630137361728 -2.475281090965225
ltoes -17.43750119022722
rfemur -18.91626603926076 1.6444064863540904 23.92291853876615
rtibia 23.444017689750552
rfoot 0.7888416562121634 -8.7603717384473
rtoes 12.291290487522296
lowerback 10.399168406378926 -1.4840265574069351 -2.4480654970528652
upperback -0.09367520094325107 -2.397445940245321 1.7873527077117322
thorax -6.043709108185634 -1.0919818652837086 4.01661701906756
lowerneck -16.79431552118606 -3.296742733537437 -1.607814929219848
upperneck 21.59519017913842 -4.432526289562242 1.1864841806215616
head 9.684773819837309 -2.0875059291736213 0.11234505186036195
lclavicle -2.7003079518273346e-15 -2.1517147062554547e-15
lhumerus -28.372224384855777 1.5427116910742553 81.99329054962986
lradius 24.834563533872842
lwrist 10.816154479448109
lhand -30.093700127800407 17.822036943379253
lfingers 7.125020000000001
lthumb -3.479816841971852 47.74263869336753
rclavicle -2.7003079517788773e-15 -2.151714706221877e-15
rhumerus -31.629410752724542 -20.848628882762878 -78.05100090225189
rradius 25.75127866520768
rwrist 6.873574727326643
rhand -18.00142796976964 21.747667762702832
rfingers 7.125020000000001
rthumb 8.477948517975133 -7.885645683713021
156
root 1.2335507819021523 17.876489935533787 48.489088567447055 -3.4147812991376534 -0.7638509950697039 -0.4183053431853372
lfemur 7.415362903081581 -2.943572671233741 -21.923643951077494
ltibia 47.723948958777086
lfoot -18.435672764441946 -2.0589258965813713
ltoes -15.179278711727854
rfemur -18.64283723983386 1.9315479278500833 24.63308102484407
rtibia 22.592722214219513
rfoot 0.6181017588929212 -8.703755632522698
rtoes 10.1922874499327
lowerback 10.346538719121972 -1.5348677449658652 -1.8680791751319186
upperback -0.08639057873110384 -2.3556826954594583 1.9239976502601461
thorax -6.086922291379119 -1.0905367907329264 3.8703412620262703
lowerneck -16.837175186803986 -3.2967873163953096 -1.6201813227203863
upperneck 21.52960457869781 -4.423969143292484 1.147975292721022
head 9.66085786484899 -2.082327872011301 0.1010209814488052
lclavicle -2.700307951827854e-15 -2.151714706255685e-15
lhumerus -28.366145520376225 1.9187967562252286 82.06041791309529
lradius 24.434125796286438
lwrist 10.94893706113508
lhand -29.743851789825936 17.98661458072214
lfingers 7.125020000000001
lthumb -3.13910084664187 48.160084794420854
rclavicle -2.7003079517726816e-15 -2.151714706217505e-15
rhumerus -31.484254571747393 -20.81769121239514 -77.99845889454701
rradius 25.7606230181122
rwrist 6.661463761924301
rhand -17.920430732827242 21.94437154053441
rfingers 7.125020000000001
rthumb 8.638958517803017 -7.6374031183503535
157
root 1.2105428573791612 17.89699897397938 47.470371578078314 -3.065436742445828 -0.8894042543720584 -1.2415226932244587
lfemur 7.138904315645458 -2.7977171928295483 -20.967125692569585
ltibia 48.339440455565395
lfoot -18.475227080730395 -1.6457750886175329
ltoes -14.531436179487601
rfemur -18.09744166516533 2.3305853377749566 25.4101574626053
rtibia 21.47808890652662
rfoot 0.46181624405786437 -8.564798226224626
rtoes 8.848117028977198
lowerback 10.332673679126287 -1.5673522945981033 -1.278514282498143
upperback -0.1366792511338989 -2.2731614580447244 2.090476488290004
thorax -6.122836898385476 -1.0381690128890386 3.8264736755415285
lowerneck -16.81739168717191 -3.286155277766271 -1.620796633839082
upperneck 21.535536718240024 -4.3990583028942725 1.0512949729669199
head 9.660012971801605 -2.0769994573895563 0.06877878292993611
lclavicle -2.700307951838301e-15 -2.1517147062626846e-15
lhumerus -28.580282283965424 2.2214533060147676 82.07806595237396
lradius 24.08127668502594
lwrist 10.958341980881046
lhand -29.621674780082927 18.570347183622204
lfingers 7.125020000000001
lthumb -2.98446553995812 48.91820460974246
rclavicle -2.700307951775166e-15 -2.1517147062191147e-15
rhumerus -31.258917230157916 -20.763616090300317 -78.06277779783603
rradius 25.744991595478748
rwrist 6.512788976362803
rhand -17.970075354788968 21.90482147894725
rfingers 7.125020000000001
rthumb 8.575515965796619 -7.57586495212793
158
root 1.2040812266886327 17.92095288782161 46.39022926627284 -2.7594640025055086 -0.9781034753684001 -2.0078917064513124
lfemur 6.630020727397493 -2.622751689317464 -19.964927697346642
ltibia 49.14139791486988
lfoot -18.33047028591822 -1.3279152277913209
ltoes -15.8867529227274
rfemur -17.32605787514382 2.702052087480233 26.173708438635003
rtibia 20.095951971311216
rfoot 0.36921576384812127 -8.279913642989332
rtoes 7.601159125718482
lowerback 10.31531485962857 -1.6033050572358585 -0.7017975319620838
upperback -0.18636481292650758 -2.213150469947973 2.2632984499297
thorax -6.169464214576315 -1.040788392587659 3.869709239954811
lowerneck -16.804459288605212 -3.281106558038755 -1.6164104697591635
upperneck 21.536241834481093 -4.3795442456424 0.9578071796004826
head 9.659254467486248 -2.071743567154348 0.030606251486156866
lclavicle -2.70030795185392e-15 -2.15171470627345e-15
lhumerus -28.78243785583273 2.6141244463972018 82.10782233459854
lradius 23.78075265043109
lwrist 10.88818854714036
lhand -29.23336211084338 18.546282577633225
lfingers 7.125020000000001
lthumb -2.5327335093030285 48.9227997343934
rclavicle -2.70030795176688e-15 -2.151714706213659e-15
rhumerus -31.21712826960326 -20.677088241255156 -77.88960847200663
rradius 25.6959187243006
rwrist 5.77378905179701
rhand -17.96435715471108 22.005540618818145
rfingers 7.125020000000001
rthumb 8.619131541000577 -7.255796983618331
159
root 1.2159456221849372 17.917800948424144 46.34643965063354 -2.9590750750273456 -1.2142257315848184 -1.9666666682052232
lfemur 6.221334835583336 -2.4046866761361705 -19.61195486796302
ltibia 49.88234160361709
lfoot -18.37156115014669 -1.3909685478937133
ltoes -15.465688504933066
rfemur -16.566665832764645 2.9332572720628782 26.354615793170943
rtibia 19.525076035439536
rfoot 0.1826452651294339 -7.955199455578602
rtoes 8.425840042620557
lowerback 10.323351861968906 -1.5919486024961593 -0.6882746049818641
upperback -0.15836449497210872 -2.2091545404933064 2.2919665777420684
thorax -6.098431075022764 -1.041059482550645 3.99930903839785
lowerneck -16.816949705828662 -3.2795510993705936 -1.6232884716288267
upperneck 21.56539722791512 -4.358724686798714 0.9351815316938198
head 9.657258446843516 -2.0637078654749508 0.033447131120164425
lclavicle -2.7003079518457352e-15 -2.1517147062679917e-15
lhumerus -29.316397442294967 2.775764477141736 82.05704017467404
lradius 23.62676824383706
lwrist 10.948472936435952
lhand -29.380745624665035 17.931958516210237
lfingers 7.125020000000001
lthumb -2.697439112516602 48.22156837681245
rclavicle -2.7003079517703047e-15 -2.151714706216031e-15
rhumerus -31.69690204574552 -20.86908166164894 -77.536687934139
rradius 25.702768968093547
rwrist 4.891825242252523
rhand -17.98302387450267 22.13837844007051
rfingers 7.125020000000001
rthumb 8.498901889652805 -7.047751565623982
